<mxfile host="Electron" agent="Mozilla/5.0 (Windows NT 10.0; Win64; x64) AppleWebKit/537.36 (KHTML, like Gecko) draw.io/26.1.1 Chrome/132.0.6834.210 Electron/34.3.3 Safari/537.36" version="26.1.1" pages="2">
  <diagram name="ДиагИсп" id="UNRto6S_DMS4T6OnY8ra">
    <mxGraphModel dx="5349" dy="1434" grid="1" gridSize="10" guides="1" tooltips="1" connect="1" arrows="1" fold="1" page="1" pageScale="1" pageWidth="3300" pageHeight="2339" math="0" shadow="0">
      <root>
        <mxCell id="oB7_KXZ4NShmShfg58jk-0" />
        <mxCell id="oB7_KXZ4NShmShfg58jk-1" parent="oB7_KXZ4NShmShfg58jk-0" />
        <mxCell id="-gqS5XXJQ7I-xPd_6g-N-0" value="Учёт выбросов загрязняющих веществ на металлообрабатывающем предприятии в атмосферный воздух" style="rounded=0;whiteSpace=wrap;html=1;fontFamily=Times New Roman;" parent="oB7_KXZ4NShmShfg58jk-1" vertex="1">
          <mxGeometry x="-3070" y="50" width="230" height="350" as="geometry" />
        </mxCell>
        <mxCell id="-gqS5XXJQ7I-xPd_6g-N-1" value="Статистика" style="text;html=1;strokeColor=none;fillColor=none;align=center;verticalAlign=middle;whiteSpace=wrap;rounded=0;fontFamily=Times New Roman;" parent="oB7_KXZ4NShmShfg58jk-1" vertex="1">
          <mxGeometry x="-2785" y="375" width="100" height="20" as="geometry" />
        </mxCell>
        <mxCell id="-gqS5XXJQ7I-xPd_6g-N-3" value="" style="endArrow=classic;html=1;entryX=1;entryY=1;entryDx=0;entryDy=0;exitX=0;exitY=1;exitDx=0;exitDy=0;fontFamily=Times New Roman;" parent="oB7_KXZ4NShmShfg58jk-1" source="-gqS5XXJQ7I-xPd_6g-N-5" target="-gqS5XXJQ7I-xPd_6g-N-5" edge="1">
          <mxGeometry width="50" height="50" relative="1" as="geometry">
            <mxPoint x="-3220" y="239" as="sourcePoint" />
            <mxPoint x="-3060" y="281" as="targetPoint" />
          </mxGeometry>
        </mxCell>
        <mxCell id="-gqS5XXJQ7I-xPd_6g-N-5" value="Данные о площадках и подразделениях" style="text;html=1;strokeColor=none;fillColor=none;align=center;verticalAlign=middle;whiteSpace=wrap;rounded=0;fontFamily=Times New Roman;" parent="oB7_KXZ4NShmShfg58jk-1" vertex="1">
          <mxGeometry x="-3280" y="70" width="210" height="20" as="geometry" />
        </mxCell>
        <mxCell id="-gqS5XXJQ7I-xPd_6g-N-8" value="" style="endArrow=classic;html=1;entryX=0.066;entryY=1.001;entryDx=0;entryDy=0;entryPerimeter=0;fontFamily=Times New Roman;" parent="oB7_KXZ4NShmShfg58jk-1" edge="1">
          <mxGeometry width="50" height="50" relative="1" as="geometry">
            <mxPoint x="-3062" y="460" as="sourcePoint" />
            <mxPoint x="-3061.8199999999997" y="400.78" as="targetPoint" />
          </mxGeometry>
        </mxCell>
        <mxCell id="-gqS5XXJQ7I-xPd_6g-N-9" value="Руководитель&lt;div&gt;предприятия&lt;/div&gt;" style="text;html=1;strokeColor=none;fillColor=none;align=center;verticalAlign=middle;whiteSpace=wrap;rounded=0;fontFamily=Times New Roman;" parent="oB7_KXZ4NShmShfg58jk-1" vertex="1">
          <mxGeometry x="-2993.5" y="463.65" width="43" height="20" as="geometry" />
        </mxCell>
        <mxCell id="-gqS5XXJQ7I-xPd_6g-N-10" value="" style="endArrow=classic;html=1;entryX=0.212;entryY=1.01;entryDx=0;entryDy=0;entryPerimeter=0;fontFamily=Times New Roman;" parent="oB7_KXZ4NShmShfg58jk-1" edge="1">
          <mxGeometry width="50" height="50" relative="1" as="geometry">
            <mxPoint x="-3016" y="440" as="sourcePoint" />
            <mxPoint x="-3016.24" y="401.94999999999993" as="targetPoint" />
          </mxGeometry>
        </mxCell>
        <mxCell id="-gqS5XXJQ7I-xPd_6g-N-11" value="Оператор" style="text;html=1;strokeColor=none;fillColor=none;align=center;verticalAlign=middle;whiteSpace=wrap;rounded=0;fontFamily=Times New Roman;" parent="oB7_KXZ4NShmShfg58jk-1" vertex="1">
          <mxGeometry x="-3043" y="440.65" width="46" height="10" as="geometry" />
        </mxCell>
        <mxCell id="-gqS5XXJQ7I-xPd_6g-N-12" value="" style="endArrow=classic;html=1;fontFamily=Times New Roman;" parent="oB7_KXZ4NShmShfg58jk-1" edge="1">
          <mxGeometry width="50" height="50" relative="1" as="geometry">
            <mxPoint x="-2975" y="460" as="sourcePoint" />
            <mxPoint x="-2975" y="401.65" as="targetPoint" />
          </mxGeometry>
        </mxCell>
        <mxCell id="-gqS5XXJQ7I-xPd_6g-N-13" value="Эколог" style="text;html=1;strokeColor=none;fillColor=none;align=center;verticalAlign=middle;whiteSpace=wrap;rounded=0;fontFamily=Times New Roman;" parent="oB7_KXZ4NShmShfg58jk-1" vertex="1">
          <mxGeometry x="-3090" y="463.65" width="50" height="10" as="geometry" />
        </mxCell>
        <mxCell id="-gqS5XXJQ7I-xPd_6g-N-14" value="" style="endArrow=classic;html=1;entryX=0.663;entryY=0.995;entryDx=0;entryDy=0;entryPerimeter=0;fontFamily=Times New Roman;" parent="oB7_KXZ4NShmShfg58jk-1" edge="1">
          <mxGeometry width="50" height="50" relative="1" as="geometry">
            <mxPoint x="-2913" y="440" as="sourcePoint" />
            <mxPoint x="-2912.51" y="400" as="targetPoint" />
          </mxGeometry>
        </mxCell>
        <mxCell id="-gqS5XXJQ7I-xPd_6g-N-15" value="Бухгалтер" style="text;html=1;strokeColor=none;fillColor=none;align=center;verticalAlign=middle;whiteSpace=wrap;rounded=0;fontFamily=Times New Roman;" parent="oB7_KXZ4NShmShfg58jk-1" vertex="1">
          <mxGeometry x="-2940" y="440.65" width="64" height="15" as="geometry" />
        </mxCell>
        <mxCell id="-gqS5XXJQ7I-xPd_6g-N-16" value="" style="endArrow=classic;html=1;entryX=0.906;entryY=1.008;entryDx=0;entryDy=0;entryPerimeter=0;fontFamily=Times New Roman;" parent="oB7_KXZ4NShmShfg58jk-1" edge="1">
          <mxGeometry width="50" height="50" relative="1" as="geometry">
            <mxPoint x="-2848" y="460" as="sourcePoint" />
            <mxPoint x="-2847.62" y="401.68999999999994" as="targetPoint" />
          </mxGeometry>
        </mxCell>
        <mxCell id="-gqS5XXJQ7I-xPd_6g-N-17" value="Админинстратор" style="text;html=1;strokeColor=none;fillColor=none;align=center;verticalAlign=middle;whiteSpace=wrap;rounded=0;fontFamily=Times New Roman;" parent="oB7_KXZ4NShmShfg58jk-1" vertex="1">
          <mxGeometry x="-2876" y="460.65" width="64" height="10" as="geometry" />
        </mxCell>
        <mxCell id="-gqS5XXJQ7I-xPd_6g-N-26" value="" style="endArrow=classic;html=1;entryX=1;entryY=1;entryDx=0;entryDy=0;exitX=0;exitY=1;exitDx=0;exitDy=0;fontFamily=Times New Roman;align=center;" parent="oB7_KXZ4NShmShfg58jk-1" source="-gqS5XXJQ7I-xPd_6g-N-30" target="-gqS5XXJQ7I-xPd_6g-N-30" edge="1">
          <mxGeometry width="50" height="50" relative="1" as="geometry">
            <mxPoint x="-2840" y="271" as="sourcePoint" />
            <mxPoint x="-2720" y="246" as="targetPoint" />
          </mxGeometry>
        </mxCell>
        <mxCell id="-gqS5XXJQ7I-xPd_6g-N-27" value="" style="endArrow=classic;html=1;entryX=1;entryY=1;entryDx=0;entryDy=0;exitX=0;exitY=1;exitDx=0;exitDy=0;fontFamily=Times New Roman;align=center;" parent="oB7_KXZ4NShmShfg58jk-1" source="-gqS5XXJQ7I-xPd_6g-N-29" target="-gqS5XXJQ7I-xPd_6g-N-29" edge="1">
          <mxGeometry width="50" height="50" relative="1" as="geometry">
            <mxPoint x="-2840" y="239" as="sourcePoint" />
            <mxPoint x="-2680" y="281" as="targetPoint" />
          </mxGeometry>
        </mxCell>
        <mxCell id="-gqS5XXJQ7I-xPd_6g-N-28" value="" style="endArrow=classic;html=1;entryX=1;entryY=1;entryDx=0;entryDy=0;exitX=0;exitY=1;exitDx=0;exitDy=0;fontFamily=Times New Roman;align=center;" parent="oB7_KXZ4NShmShfg58jk-1" source="-gqS5XXJQ7I-xPd_6g-N-31" target="-gqS5XXJQ7I-xPd_6g-N-31" edge="1">
          <mxGeometry width="50" height="50" relative="1" as="geometry">
            <mxPoint x="-2840" y="304" as="sourcePoint" />
            <mxPoint x="-2680" y="248.5" as="targetPoint" />
          </mxGeometry>
        </mxCell>
        <mxCell id="-gqS5XXJQ7I-xPd_6g-N-29" value="Таблица БД &quot;Параметры методик&quot;" style="text;html=1;strokeColor=none;fillColor=none;align=center;verticalAlign=middle;whiteSpace=wrap;rounded=0;fontFamily=Times New Roman;" parent="oB7_KXZ4NShmShfg58jk-1" vertex="1">
          <mxGeometry x="-2840" y="210" width="210" height="20" as="geometry" />
        </mxCell>
        <mxCell id="-gqS5XXJQ7I-xPd_6g-N-30" value="Таблица БД &quot;Удельные показатели&quot;" style="text;html=1;strokeColor=none;fillColor=none;align=center;verticalAlign=middle;whiteSpace=wrap;rounded=0;fontFamily=Times New Roman;" parent="oB7_KXZ4NShmShfg58jk-1" vertex="1">
          <mxGeometry x="-2840" y="233" width="210" height="20" as="geometry" />
        </mxCell>
        <mxCell id="-gqS5XXJQ7I-xPd_6g-N-31" value="Таблица БД &quot;Расходные группы&quot;" style="text;html=1;strokeColor=none;fillColor=none;align=center;verticalAlign=middle;whiteSpace=wrap;rounded=0;fontFamily=Times New Roman;" parent="oB7_KXZ4NShmShfg58jk-1" vertex="1">
          <mxGeometry x="-2840" y="256" width="210" height="20" as="geometry" />
        </mxCell>
        <mxCell id="-gqS5XXJQ7I-xPd_6g-N-32" value="" style="endArrow=classic;html=1;fontFamily=Times New Roman;align=center;" parent="oB7_KXZ4NShmShfg58jk-1" edge="1">
          <mxGeometry width="50" height="50" relative="1" as="geometry">
            <mxPoint x="-2840" y="298" as="sourcePoint" />
            <mxPoint x="-2630" y="298" as="targetPoint" />
          </mxGeometry>
        </mxCell>
        <mxCell id="-gqS5XXJQ7I-xPd_6g-N-33" value="Таблица БД &quot;Расходы&quot;" style="text;html=1;strokeColor=none;fillColor=none;align=center;verticalAlign=middle;whiteSpace=wrap;rounded=0;fontFamily=Times New Roman;" parent="oB7_KXZ4NShmShfg58jk-1" vertex="1">
          <mxGeometry x="-2795" y="279" width="125" height="20" as="geometry" />
        </mxCell>
        <mxCell id="-gqS5XXJQ7I-xPd_6g-N-34" value="" style="endArrow=classic;html=1;fontFamily=Times New Roman;align=center;" parent="oB7_KXZ4NShmShfg58jk-1" edge="1">
          <mxGeometry width="50" height="50" relative="1" as="geometry">
            <mxPoint x="-2840" y="318" as="sourcePoint" />
            <mxPoint x="-2630" y="318" as="targetPoint" />
          </mxGeometry>
        </mxCell>
        <mxCell id="-gqS5XXJQ7I-xPd_6g-N-35" value="" style="endArrow=classic;html=1;fontFamily=Times New Roman;align=center;" parent="oB7_KXZ4NShmShfg58jk-1" edge="1">
          <mxGeometry width="50" height="50" relative="1" as="geometry">
            <mxPoint x="-2840" y="338.5" as="sourcePoint" />
            <mxPoint x="-2630" y="338" as="targetPoint" />
          </mxGeometry>
        </mxCell>
        <mxCell id="-gqS5XXJQ7I-xPd_6g-N-36" value="" style="endArrow=classic;html=1;fontFamily=Times New Roman;align=center;" parent="oB7_KXZ4NShmShfg58jk-1" edge="1">
          <mxGeometry width="50" height="50" relative="1" as="geometry">
            <mxPoint x="-2840" y="357.5" as="sourcePoint" />
            <mxPoint x="-2630" y="357" as="targetPoint" />
          </mxGeometry>
        </mxCell>
        <mxCell id="-gqS5XXJQ7I-xPd_6g-N-37" value="Таблица БД &quot;Значения параметров&quot;" style="text;html=1;strokeColor=none;fillColor=none;align=center;verticalAlign=middle;whiteSpace=wrap;rounded=0;fontFamily=Times New Roman;" parent="oB7_KXZ4NShmShfg58jk-1" vertex="1">
          <mxGeometry x="-2835" y="299" width="205" height="20" as="geometry" />
        </mxCell>
        <mxCell id="-gqS5XXJQ7I-xPd_6g-N-38" value="Таблица БД &quot;Валовые выбросы&quot;" style="text;html=1;strokeColor=none;fillColor=none;align=center;verticalAlign=middle;whiteSpace=wrap;rounded=0;fontFamily=Times New Roman;" parent="oB7_KXZ4NShmShfg58jk-1" vertex="1">
          <mxGeometry x="-2835" y="320" width="195" height="20" as="geometry" />
        </mxCell>
        <mxCell id="-gqS5XXJQ7I-xPd_6g-N-39" value="Таблица БД &quot;Налоги&quot;" style="text;html=1;strokeColor=none;fillColor=none;align=center;verticalAlign=middle;whiteSpace=wrap;rounded=0;fontFamily=Times New Roman;" parent="oB7_KXZ4NShmShfg58jk-1" vertex="1">
          <mxGeometry x="-2836.5" y="358" width="195" height="18" as="geometry" />
        </mxCell>
        <mxCell id="-gqS5XXJQ7I-xPd_6g-N-40" value="" style="endArrow=classic;html=1;fontFamily=Times New Roman;align=center;" parent="oB7_KXZ4NShmShfg58jk-1" edge="1">
          <mxGeometry width="50" height="50" relative="1" as="geometry">
            <mxPoint x="-2840" y="376.5" as="sourcePoint" />
            <mxPoint x="-2630" y="376" as="targetPoint" />
          </mxGeometry>
        </mxCell>
        <mxCell id="-gqS5XXJQ7I-xPd_6g-N-41" value="" style="endArrow=classic;html=1;exitX=1.005;exitY=0.949;exitDx=0;exitDy=0;exitPerimeter=0;fontFamily=Times New Roman;align=center;" parent="oB7_KXZ4NShmShfg58jk-1" edge="1">
          <mxGeometry width="50" height="50" relative="1" as="geometry">
            <mxPoint x="-2838.8500000000004" y="394.31000000000006" as="sourcePoint" />
            <mxPoint x="-2630" y="394" as="targetPoint" />
          </mxGeometry>
        </mxCell>
        <mxCell id="-gqS5XXJQ7I-xPd_6g-N-107" value="" style="endArrow=classic;html=1;fontFamily=Times New Roman;align=center;" parent="oB7_KXZ4NShmShfg58jk-1" edge="1">
          <mxGeometry width="50" height="50" relative="1" as="geometry">
            <mxPoint x="-2840" y="209.5" as="sourcePoint" />
            <mxPoint x="-2630" y="209" as="targetPoint" />
          </mxGeometry>
        </mxCell>
        <mxCell id="-gqS5XXJQ7I-xPd_6g-N-108" value="Таблица БД &quot;Методики&quot;" style="text;html=1;strokeColor=none;fillColor=none;align=center;verticalAlign=middle;whiteSpace=wrap;rounded=0;fontFamily=Times New Roman;" parent="oB7_KXZ4NShmShfg58jk-1" vertex="1">
          <mxGeometry x="-2840" y="190" width="200" height="20" as="geometry" />
        </mxCell>
        <mxCell id="-gqS5XXJQ7I-xPd_6g-N-110" value="Таблица БД &quot;Ставки налога&quot;" style="text;html=1;strokeColor=none;fillColor=none;align=center;verticalAlign=middle;whiteSpace=wrap;rounded=0;fontFamily=Times New Roman;" parent="oB7_KXZ4NShmShfg58jk-1" vertex="1">
          <mxGeometry x="-2840.5" y="340" width="195" height="18" as="geometry" />
        </mxCell>
        <mxCell id="-gqS5XXJQ7I-xPd_6g-N-111" value="" style="endArrow=classic;html=1;fontFamily=Times New Roman;align=center;" parent="oB7_KXZ4NShmShfg58jk-1" edge="1">
          <mxGeometry width="50" height="50" relative="1" as="geometry">
            <mxPoint x="-2840" y="189.5" as="sourcePoint" />
            <mxPoint x="-2630" y="189" as="targetPoint" />
          </mxGeometry>
        </mxCell>
        <mxCell id="-gqS5XXJQ7I-xPd_6g-N-112" value="Таблица БД &quot;Режимы&quot;" style="text;html=1;strokeColor=none;fillColor=none;align=center;verticalAlign=middle;whiteSpace=wrap;rounded=0;fontFamily=Times New Roman;" parent="oB7_KXZ4NShmShfg58jk-1" vertex="1">
          <mxGeometry x="-2840" y="170" width="200" height="20" as="geometry" />
        </mxCell>
        <mxCell id="-gqS5XXJQ7I-xPd_6g-N-113" value="" style="endArrow=classic;html=1;fontFamily=Times New Roman;align=center;" parent="oB7_KXZ4NShmShfg58jk-1" edge="1">
          <mxGeometry width="50" height="50" relative="1" as="geometry">
            <mxPoint x="-2840.5" y="169.5" as="sourcePoint" />
            <mxPoint x="-2630.5" y="169" as="targetPoint" />
          </mxGeometry>
        </mxCell>
        <mxCell id="-gqS5XXJQ7I-xPd_6g-N-114" value="Таблица БД &quot;Вещества источника&quot;" style="text;html=1;strokeColor=none;fillColor=none;align=center;verticalAlign=middle;whiteSpace=wrap;rounded=0;fontFamily=Times New Roman;" parent="oB7_KXZ4NShmShfg58jk-1" vertex="1">
          <mxGeometry x="-2840.5" y="150" width="200" height="20" as="geometry" />
        </mxCell>
        <mxCell id="-gqS5XXJQ7I-xPd_6g-N-115" value="" style="endArrow=classic;html=1;fontFamily=Times New Roman;align=center;" parent="oB7_KXZ4NShmShfg58jk-1" edge="1">
          <mxGeometry width="50" height="50" relative="1" as="geometry">
            <mxPoint x="-2840" y="149.5" as="sourcePoint" />
            <mxPoint x="-2630" y="149" as="targetPoint" />
          </mxGeometry>
        </mxCell>
        <mxCell id="-gqS5XXJQ7I-xPd_6g-N-116" value="Таблица БД &quot;Загрязняющие вещества&quot;" style="text;html=1;strokeColor=none;fillColor=none;align=center;verticalAlign=middle;whiteSpace=wrap;rounded=0;fontFamily=Times New Roman;" parent="oB7_KXZ4NShmShfg58jk-1" vertex="1">
          <mxGeometry x="-2840" y="130" width="200" height="20" as="geometry" />
        </mxCell>
        <mxCell id="-gqS5XXJQ7I-xPd_6g-N-117" value="" style="endArrow=classic;html=1;fontFamily=Times New Roman;align=center;" parent="oB7_KXZ4NShmShfg58jk-1" edge="1">
          <mxGeometry width="50" height="50" relative="1" as="geometry">
            <mxPoint x="-2840.5" y="129.5" as="sourcePoint" />
            <mxPoint x="-2630.5" y="129" as="targetPoint" />
          </mxGeometry>
        </mxCell>
        <mxCell id="-gqS5XXJQ7I-xPd_6g-N-118" value="Таблица БД &quot;Время работы источника&quot;" style="text;html=1;strokeColor=none;fillColor=none;align=center;verticalAlign=middle;whiteSpace=wrap;rounded=0;fontFamily=Times New Roman;" parent="oB7_KXZ4NShmShfg58jk-1" vertex="1">
          <mxGeometry x="-2840.5" y="110" width="210.5" height="20" as="geometry" />
        </mxCell>
        <mxCell id="-gqS5XXJQ7I-xPd_6g-N-119" value="Таблица БД &quot;Источники выбросов&quot;" style="text;html=1;strokeColor=none;fillColor=none;align=center;verticalAlign=middle;whiteSpace=wrap;rounded=0;fontFamily=Times New Roman;" parent="oB7_KXZ4NShmShfg58jk-1" vertex="1">
          <mxGeometry x="-2840.5" y="90" width="210.5" height="20" as="geometry" />
        </mxCell>
        <mxCell id="-gqS5XXJQ7I-xPd_6g-N-120" value="Таблица БД &quot;Подразделения&quot;" style="text;html=1;strokeColor=none;fillColor=none;align=center;verticalAlign=middle;whiteSpace=wrap;rounded=0;fontFamily=Times New Roman;" parent="oB7_KXZ4NShmShfg58jk-1" vertex="1">
          <mxGeometry x="-2840.5" y="70" width="210.5" height="20" as="geometry" />
        </mxCell>
        <mxCell id="-gqS5XXJQ7I-xPd_6g-N-121" value="Таблица БД &quot;Площадки&quot;" style="text;html=1;strokeColor=none;fillColor=none;align=center;verticalAlign=middle;whiteSpace=wrap;rounded=0;fontFamily=Times New Roman;" parent="oB7_KXZ4NShmShfg58jk-1" vertex="1">
          <mxGeometry x="-2840.5" y="50" width="210.5" height="20" as="geometry" />
        </mxCell>
        <mxCell id="-gqS5XXJQ7I-xPd_6g-N-123" value="" style="endArrow=classic;html=1;fontFamily=Times New Roman;align=center;" parent="oB7_KXZ4NShmShfg58jk-1" edge="1">
          <mxGeometry width="50" height="50" relative="1" as="geometry">
            <mxPoint x="-2840.5" y="109.5" as="sourcePoint" />
            <mxPoint x="-2630.5" y="109" as="targetPoint" />
          </mxGeometry>
        </mxCell>
        <mxCell id="-gqS5XXJQ7I-xPd_6g-N-125" value="" style="endArrow=classic;html=1;fontFamily=Times New Roman;align=center;" parent="oB7_KXZ4NShmShfg58jk-1" edge="1">
          <mxGeometry width="50" height="50" relative="1" as="geometry">
            <mxPoint x="-2840" y="90.5" as="sourcePoint" />
            <mxPoint x="-2630" y="90" as="targetPoint" />
          </mxGeometry>
        </mxCell>
        <mxCell id="-gqS5XXJQ7I-xPd_6g-N-126" value="" style="endArrow=classic;html=1;fontFamily=Times New Roman;align=center;" parent="oB7_KXZ4NShmShfg58jk-1" edge="1">
          <mxGeometry width="50" height="50" relative="1" as="geometry">
            <mxPoint x="-2840.5" y="70.5" as="sourcePoint" />
            <mxPoint x="-2630.5" y="70" as="targetPoint" />
          </mxGeometry>
        </mxCell>
        <mxCell id="-gqS5XXJQ7I-xPd_6g-N-129" value="" style="endArrow=classic;html=1;entryX=1;entryY=1;entryDx=0;entryDy=0;exitX=0;exitY=1;exitDx=0;exitDy=0;fontFamily=Times New Roman;" parent="oB7_KXZ4NShmShfg58jk-1" source="-gqS5XXJQ7I-xPd_6g-N-130" target="-gqS5XXJQ7I-xPd_6g-N-130" edge="1">
          <mxGeometry width="50" height="50" relative="1" as="geometry">
            <mxPoint x="-3220" y="279" as="sourcePoint" />
            <mxPoint x="-3060" y="321" as="targetPoint" />
          </mxGeometry>
        </mxCell>
        <mxCell id="-gqS5XXJQ7I-xPd_6g-N-130" value="Данные об источниках выбросов" style="text;html=1;strokeColor=none;fillColor=none;align=center;verticalAlign=middle;whiteSpace=wrap;rounded=0;fontFamily=Times New Roman;" parent="oB7_KXZ4NShmShfg58jk-1" vertex="1">
          <mxGeometry x="-3280" y="110" width="210" height="20" as="geometry" />
        </mxCell>
        <mxCell id="-gqS5XXJQ7I-xPd_6g-N-132" value="" style="endArrow=classic;html=1;entryX=1;entryY=1;entryDx=0;entryDy=0;exitX=0;exitY=1;exitDx=0;exitDy=0;fontFamily=Times New Roman;" parent="oB7_KXZ4NShmShfg58jk-1" source="-gqS5XXJQ7I-xPd_6g-N-133" target="-gqS5XXJQ7I-xPd_6g-N-133" edge="1">
          <mxGeometry width="50" height="50" relative="1" as="geometry">
            <mxPoint x="-3220" y="321.5" as="sourcePoint" />
            <mxPoint x="-3060" y="363.5" as="targetPoint" />
          </mxGeometry>
        </mxCell>
        <mxCell id="-gqS5XXJQ7I-xPd_6g-N-133" value="Данные о загрязняющих веществах" style="text;html=1;strokeColor=none;fillColor=none;align=center;verticalAlign=middle;whiteSpace=wrap;rounded=0;fontFamily=Times New Roman;" parent="oB7_KXZ4NShmShfg58jk-1" vertex="1">
          <mxGeometry x="-3280" y="152.5" width="210" height="20" as="geometry" />
        </mxCell>
        <mxCell id="-gqS5XXJQ7I-xPd_6g-N-134" value="" style="endArrow=classic;html=1;entryX=1;entryY=1;entryDx=0;entryDy=0;exitX=0;exitY=1;exitDx=0;exitDy=0;fontFamily=Times New Roman;" parent="oB7_KXZ4NShmShfg58jk-1" edge="1">
          <mxGeometry width="50" height="50" relative="1" as="geometry">
            <mxPoint x="-3280" y="357.5" as="sourcePoint" />
            <mxPoint x="-3070" y="357.5" as="targetPoint" />
          </mxGeometry>
        </mxCell>
        <mxCell id="-gqS5XXJQ7I-xPd_6g-N-135" value="Данные о расходных материалах и объёмах расхода" style="text;html=1;strokeColor=none;fillColor=none;align=center;verticalAlign=middle;whiteSpace=wrap;rounded=0;fontFamily=Times New Roman;" parent="oB7_KXZ4NShmShfg58jk-1" vertex="1">
          <mxGeometry x="-3280" y="332.5" width="210" height="20" as="geometry" />
        </mxCell>
        <mxCell id="-gqS5XXJQ7I-xPd_6g-N-136" value="" style="endArrow=classic;html=1;entryX=1;entryY=1;entryDx=0;entryDy=0;exitX=0;exitY=1;exitDx=0;exitDy=0;fontFamily=Times New Roman;" parent="oB7_KXZ4NShmShfg58jk-1" source="-gqS5XXJQ7I-xPd_6g-N-137" target="-gqS5XXJQ7I-xPd_6g-N-137" edge="1">
          <mxGeometry width="50" height="50" relative="1" as="geometry">
            <mxPoint x="-3220" y="409.5" as="sourcePoint" />
            <mxPoint x="-3060" y="451.5" as="targetPoint" />
          </mxGeometry>
        </mxCell>
        <mxCell id="-gqS5XXJQ7I-xPd_6g-N-137" value="Данные о методиках и их параметрах" style="text;html=1;strokeColor=none;fillColor=none;align=center;verticalAlign=middle;whiteSpace=wrap;rounded=0;fontFamily=Times New Roman;" parent="oB7_KXZ4NShmShfg58jk-1" vertex="1">
          <mxGeometry x="-3280" y="240.5" width="210" height="20" as="geometry" />
        </mxCell>
        <mxCell id="-gqS5XXJQ7I-xPd_6g-N-138" value="" style="endArrow=classic;html=1;entryX=1;entryY=1;entryDx=0;entryDy=0;exitX=0;exitY=1;exitDx=0;exitDy=0;fontFamily=Times New Roman;" parent="oB7_KXZ4NShmShfg58jk-1" source="-gqS5XXJQ7I-xPd_6g-N-139" target="-gqS5XXJQ7I-xPd_6g-N-139" edge="1">
          <mxGeometry width="50" height="50" relative="1" as="geometry">
            <mxPoint x="-3220" y="363.5" as="sourcePoint" />
            <mxPoint x="-3060" y="405.5" as="targetPoint" />
          </mxGeometry>
        </mxCell>
        <mxCell id="-gqS5XXJQ7I-xPd_6g-N-139" value="Данные об удельных показателях" style="text;html=1;strokeColor=none;fillColor=none;align=center;verticalAlign=middle;whiteSpace=wrap;rounded=0;fontFamily=Times New Roman;" parent="oB7_KXZ4NShmShfg58jk-1" vertex="1">
          <mxGeometry x="-3280" y="194.5" width="210" height="20" as="geometry" />
        </mxCell>
        <mxCell id="-gqS5XXJQ7I-xPd_6g-N-140" value="" style="endArrow=classic;html=1;entryX=1;entryY=1;entryDx=0;entryDy=0;exitX=0;exitY=1;exitDx=0;exitDy=0;fontFamily=Times New Roman;" parent="oB7_KXZ4NShmShfg58jk-1" edge="1">
          <mxGeometry width="50" height="50" relative="1" as="geometry">
            <mxPoint x="-3280" y="313.75" as="sourcePoint" />
            <mxPoint x="-3070" y="313.75" as="targetPoint" />
          </mxGeometry>
        </mxCell>
        <mxCell id="-gqS5XXJQ7I-xPd_6g-N-141" value="Данные о времени работы источников выбросов&amp;nbsp;" style="text;html=1;strokeColor=none;fillColor=none;align=center;verticalAlign=middle;whiteSpace=wrap;rounded=0;fontFamily=Times New Roman;" parent="oB7_KXZ4NShmShfg58jk-1" vertex="1">
          <mxGeometry x="-3280" y="288.75" width="210" height="20" as="geometry" />
        </mxCell>
        <mxCell id="-gqS5XXJQ7I-xPd_6g-N-143" value="Статистика" style="text;html=1;strokeColor=none;fillColor=none;align=center;verticalAlign=middle;whiteSpace=wrap;rounded=0;fontFamily=Times New Roman;fontSize=14;" parent="oB7_KXZ4NShmShfg58jk-1" vertex="1">
          <mxGeometry x="-2340" y="970.0000000000001" width="100" height="20" as="geometry" />
        </mxCell>
        <mxCell id="-gqS5XXJQ7I-xPd_6g-N-144" value="" style="endArrow=classic;html=1;entryX=-0.007;entryY=0.405;entryDx=0;entryDy=0;fontFamily=Times New Roman;entryPerimeter=0;fontSize=14;" parent="oB7_KXZ4NShmShfg58jk-1" target="-gqS5XXJQ7I-xPd_6g-N-201" edge="1">
          <mxGeometry width="50" height="50" relative="1" as="geometry">
            <mxPoint x="-3290" y="723" as="sourcePoint" />
            <mxPoint x="-2851.09" y="722.3300000000002" as="targetPoint" />
          </mxGeometry>
        </mxCell>
        <mxCell id="-gqS5XXJQ7I-xPd_6g-N-146" value="" style="endArrow=classic;html=1;entryX=0.16;entryY=1.002;entryDx=0;entryDy=0;entryPerimeter=0;fontFamily=Times New Roman;fontSize=14;jumpStyle=arc;" parent="oB7_KXZ4NShmShfg58jk-1" target="-gqS5XXJQ7I-xPd_6g-N-202" edge="1">
          <mxGeometry width="50" height="50" relative="1" as="geometry">
            <mxPoint x="-2992" y="1296.35" as="sourcePoint" />
            <mxPoint x="-2991.8199999999997" y="1237.1299999999999" as="targetPoint" />
          </mxGeometry>
        </mxCell>
        <mxCell id="-gqS5XXJQ7I-xPd_6g-N-147" value="Руководитель&lt;div&gt;предприятия&lt;/div&gt;" style="text;html=1;strokeColor=none;fillColor=none;align=center;verticalAlign=middle;whiteSpace=wrap;rounded=0;fontFamily=Times New Roman;fontSize=14;" parent="oB7_KXZ4NShmShfg58jk-1" vertex="1">
          <mxGeometry x="-2590" y="1294.9999999999998" width="43" height="20" as="geometry" />
        </mxCell>
        <mxCell id="-gqS5XXJQ7I-xPd_6g-N-148" value="" style="endArrow=classic;html=1;entryX=0.109;entryY=1;entryDx=0;entryDy=0;entryPerimeter=0;fontFamily=Times New Roman;fontSize=14;exitX=0.5;exitY=0;exitDx=0;exitDy=0;rounded=0;curved=0;jumpStyle=arc;" parent="oB7_KXZ4NShmShfg58jk-1" source="-gqS5XXJQ7I-xPd_6g-N-149" target="-gqS5XXJQ7I-xPd_6g-N-201" edge="1">
          <mxGeometry width="50" height="50" relative="1" as="geometry">
            <mxPoint x="-2863.44" y="1295" as="sourcePoint" />
            <mxPoint x="-2863.68" y="1256.9499999999998" as="targetPoint" />
            <Array as="points">
              <mxPoint x="-2890" y="1270" />
              <mxPoint x="-2841" y="1270" />
            </Array>
          </mxGeometry>
        </mxCell>
        <mxCell id="-gqS5XXJQ7I-xPd_6g-N-149" value="Оператор" style="text;html=1;strokeColor=none;fillColor=none;align=center;verticalAlign=middle;whiteSpace=wrap;rounded=0;fontFamily=Times New Roman;fontSize=14;" parent="oB7_KXZ4NShmShfg58jk-1" vertex="1">
          <mxGeometry x="-2913" y="1300" width="46" height="10" as="geometry" />
        </mxCell>
        <mxCell id="-gqS5XXJQ7I-xPd_6g-N-150" value="" style="endArrow=classic;html=1;fontFamily=Times New Roman;entryX=0.278;entryY=0.997;entryDx=0;entryDy=0;entryPerimeter=0;fontSize=14;" parent="oB7_KXZ4NShmShfg58jk-1" target="-gqS5XXJQ7I-xPd_6g-N-204" edge="1">
          <mxGeometry width="50" height="50" relative="1" as="geometry">
            <mxPoint x="-2560" y="1290" as="sourcePoint" />
            <mxPoint x="-2581.5" y="1291.6499999999999" as="targetPoint" />
          </mxGeometry>
        </mxCell>
        <mxCell id="-gqS5XXJQ7I-xPd_6g-N-269" value="просмотр" style="edgeLabel;html=1;align=center;verticalAlign=middle;resizable=0;points=[];fontFamily=Times New Roman;fontSize=14;labelBackgroundColor=none;" parent="-gqS5XXJQ7I-xPd_6g-N-150" vertex="1" connectable="0">
          <mxGeometry x="0.9059" relative="1" as="geometry">
            <mxPoint x="-31" y="10" as="offset" />
          </mxGeometry>
        </mxCell>
        <mxCell id="-gqS5XXJQ7I-xPd_6g-N-151" value="Эколог" style="text;html=1;strokeColor=none;fillColor=none;align=center;verticalAlign=middle;whiteSpace=wrap;rounded=0;fontFamily=Times New Roman;fontSize=14;" parent="oB7_KXZ4NShmShfg58jk-1" vertex="1">
          <mxGeometry x="-3020" y="1299.9999999999998" width="50" height="10" as="geometry" />
        </mxCell>
        <mxCell id="-gqS5XXJQ7I-xPd_6g-N-152" value="" style="endArrow=classic;html=1;entryX=0.5;entryY=1;entryDx=0;entryDy=0;fontFamily=Times New Roman;fontSize=14;" parent="oB7_KXZ4NShmShfg58jk-1" edge="1">
          <mxGeometry width="50" height="50" relative="1" as="geometry">
            <mxPoint x="-2393" y="1290" as="sourcePoint" />
            <mxPoint x="-2392.78" y="1220.0000000000002" as="targetPoint" />
          </mxGeometry>
        </mxCell>
        <mxCell id="-gqS5XXJQ7I-xPd_6g-N-153" value="Бухгалтер" style="text;html=1;strokeColor=none;fillColor=none;align=center;verticalAlign=middle;whiteSpace=wrap;rounded=0;fontFamily=Times New Roman;fontSize=14;" parent="oB7_KXZ4NShmShfg58jk-1" vertex="1">
          <mxGeometry x="-2434" y="1294.9999999999998" width="64" height="15" as="geometry" />
        </mxCell>
        <mxCell id="-gqS5XXJQ7I-xPd_6g-N-154" value="" style="endArrow=classic;html=1;entryX=0.5;entryY=1;entryDx=0;entryDy=0;fontFamily=Times New Roman;rounded=0;curved=0;jumpStyle=arc;fontSize=14;" parent="oB7_KXZ4NShmShfg58jk-1" target="-gqS5XXJQ7I-xPd_6g-N-202" edge="1">
          <mxGeometry width="50" height="50" relative="1" as="geometry">
            <mxPoint x="-2770" y="1290" as="sourcePoint" />
            <mxPoint x="-2769.62" y="1189.9999999999998" as="targetPoint" />
            <Array as="points">
              <mxPoint x="-2770" y="1250" />
              <mxPoint x="-2951" y="1250" />
            </Array>
          </mxGeometry>
        </mxCell>
        <mxCell id="-gqS5XXJQ7I-xPd_6g-N-155" value="Админинстратор" style="text;html=1;strokeColor=none;fillColor=none;align=center;verticalAlign=middle;whiteSpace=wrap;rounded=0;fontFamily=Times New Roman;fontSize=14;" parent="oB7_KXZ4NShmShfg58jk-1" vertex="1">
          <mxGeometry x="-2798" y="1299.9999999999998" width="64" height="10" as="geometry" />
        </mxCell>
        <mxCell id="-gqS5XXJQ7I-xPd_6g-N-157" value="" style="endArrow=classic;html=1;fontFamily=Times New Roman;align=center;jumpStyle=arc;exitX=1.006;exitY=0.663;exitDx=0;exitDy=0;exitPerimeter=0;fontSize=14;" parent="oB7_KXZ4NShmShfg58jk-1" source="-gqS5XXJQ7I-xPd_6g-N-203" edge="1">
          <mxGeometry width="50" height="50" relative="1" as="geometry">
            <mxPoint x="-2649" y="900" as="sourcePoint" />
            <mxPoint x="-2220" y="900" as="targetPoint" />
          </mxGeometry>
        </mxCell>
        <mxCell id="-gqS5XXJQ7I-xPd_6g-N-164" value="" style="endArrow=classic;html=1;fontFamily=Times New Roman;align=center;exitX=1;exitY=0.25;exitDx=0;exitDy=0;fontSize=14;" parent="oB7_KXZ4NShmShfg58jk-1" source="-gqS5XXJQ7I-xPd_6g-N-204" edge="1">
          <mxGeometry width="50" height="50" relative="1" as="geometry">
            <mxPoint x="-2460" y="990" as="sourcePoint" />
            <mxPoint x="-2222" y="970" as="targetPoint" />
          </mxGeometry>
        </mxCell>
        <mxCell id="-gqS5XXJQ7I-xPd_6g-N-166" value="" style="endArrow=classic;html=1;fontFamily=Times New Roman;align=center;fontSize=14;" parent="oB7_KXZ4NShmShfg58jk-1" edge="1">
          <mxGeometry width="50" height="50" relative="1" as="geometry">
            <mxPoint x="-2387.06" y="1180.9299999999998" as="sourcePoint" />
            <mxPoint x="-2217.56" y="1180.4299999999998" as="targetPoint" />
          </mxGeometry>
        </mxCell>
        <mxCell id="-gqS5XXJQ7I-xPd_6g-N-167" value="Таблица БД &quot;Значения параметров&quot;" style="text;html=1;strokeColor=none;fillColor=none;align=center;verticalAlign=middle;whiteSpace=wrap;rounded=0;fontFamily=Times New Roman;fontSize=14;" parent="oB7_KXZ4NShmShfg58jk-1" vertex="1">
          <mxGeometry x="-2460" y="821" width="244.86" height="20" as="geometry" />
        </mxCell>
        <mxCell id="-gqS5XXJQ7I-xPd_6g-N-168" value="Таблица БД &quot;Валовые выбросы&quot;" style="text;html=1;strokeColor=none;fillColor=none;align=center;verticalAlign=middle;whiteSpace=wrap;rounded=0;fontFamily=Times New Roman;fontSize=14;" parent="oB7_KXZ4NShmShfg58jk-1" vertex="1">
          <mxGeometry x="-2430" y="950" width="202.94" height="20" as="geometry" />
        </mxCell>
        <mxCell id="-gqS5XXJQ7I-xPd_6g-N-169" value="Таблица БД &quot;Налоги&quot;" style="text;html=1;strokeColor=none;fillColor=none;align=center;verticalAlign=middle;whiteSpace=wrap;rounded=0;fontFamily=Times New Roman;fontSize=14;" parent="oB7_KXZ4NShmShfg58jk-1" vertex="1">
          <mxGeometry x="-2370" y="1161.34" width="150" height="18" as="geometry" />
        </mxCell>
        <mxCell id="-gqS5XXJQ7I-xPd_6g-N-170" value="" style="endArrow=classic;html=1;fontFamily=Times New Roman;align=center;fontSize=14;" parent="oB7_KXZ4NShmShfg58jk-1" edge="1">
          <mxGeometry width="50" height="50" relative="1" as="geometry">
            <mxPoint x="-2387.06" y="1199.9299999999998" as="sourcePoint" />
            <mxPoint x="-2217.56" y="1199.4299999999998" as="targetPoint" />
          </mxGeometry>
        </mxCell>
        <mxCell id="-gqS5XXJQ7I-xPd_6g-N-171" value="" style="endArrow=classic;html=1;fontFamily=Times New Roman;align=center;fontSize=14;" parent="oB7_KXZ4NShmShfg58jk-1" edge="1">
          <mxGeometry width="50" height="50" relative="1" as="geometry">
            <mxPoint x="-2480" y="990" as="sourcePoint" />
            <mxPoint x="-2220" y="990" as="targetPoint" />
          </mxGeometry>
        </mxCell>
        <mxCell id="-gqS5XXJQ7I-xPd_6g-N-172" value="" style="endArrow=classic;html=1;fontFamily=Times New Roman;align=center;exitX=1;exitY=0.5;exitDx=0;exitDy=0;fontSize=14;" parent="oB7_KXZ4NShmShfg58jk-1" source="-gqS5XXJQ7I-xPd_6g-N-203" edge="1">
          <mxGeometry width="50" height="50" relative="1" as="geometry">
            <mxPoint x="-2628.0000000000005" y="878.8800000000002" as="sourcePoint" />
            <mxPoint x="-2219.78" y="878.9999999999999" as="targetPoint" />
          </mxGeometry>
        </mxCell>
        <mxCell id="-gqS5XXJQ7I-xPd_6g-N-173" value="Таблица БД &quot;Методики&quot;" style="text;html=1;strokeColor=none;fillColor=none;align=center;verticalAlign=middle;whiteSpace=wrap;rounded=0;fontFamily=Times New Roman;fontSize=14;" parent="oB7_KXZ4NShmShfg58jk-1" vertex="1">
          <mxGeometry x="-2440" y="861" width="224.86" height="20" as="geometry" />
        </mxCell>
        <mxCell id="-gqS5XXJQ7I-xPd_6g-N-174" value="Таблица БД &quot;Ставки налога&quot;" style="text;html=1;strokeColor=none;fillColor=none;align=center;verticalAlign=middle;whiteSpace=wrap;rounded=0;fontFamily=Times New Roman;fontSize=14;" parent="oB7_KXZ4NShmShfg58jk-1" vertex="1">
          <mxGeometry x="-2383.06" y="1181.34" width="195" height="18" as="geometry" />
        </mxCell>
        <mxCell id="-gqS5XXJQ7I-xPd_6g-N-175" value="" style="endArrow=classic;html=1;fontFamily=Times New Roman;align=center;exitX=1.005;exitY=0.328;exitDx=0;exitDy=0;exitPerimeter=0;jumpStyle=arc;fontSize=14;" parent="oB7_KXZ4NShmShfg58jk-1" source="-gqS5XXJQ7I-xPd_6g-N-203" edge="1">
          <mxGeometry width="50" height="50" relative="1" as="geometry">
            <mxPoint x="-2626.57" y="859.8000000000001" as="sourcePoint" />
            <mxPoint x="-2219.78" y="858.9999999999999" as="targetPoint" />
          </mxGeometry>
        </mxCell>
        <mxCell id="-gqS5XXJQ7I-xPd_6g-N-176" value="Таблица БД &quot;Режимы&quot;" style="text;html=1;strokeColor=none;fillColor=none;align=center;verticalAlign=middle;whiteSpace=wrap;rounded=0;fontFamily=Times New Roman;fontSize=14;" parent="oB7_KXZ4NShmShfg58jk-1" vertex="1">
          <mxGeometry x="-2440" y="841" width="224.86" height="20" as="geometry" />
        </mxCell>
        <mxCell id="-gqS5XXJQ7I-xPd_6g-N-178" value="Таблица БД &quot;Вещества источника&quot;" style="text;html=1;strokeColor=none;fillColor=none;align=center;verticalAlign=middle;whiteSpace=wrap;rounded=0;fontFamily=Times New Roman;fontSize=14;" parent="oB7_KXZ4NShmShfg58jk-1" vertex="1">
          <mxGeometry x="-2460" y="741.17" width="223.56" height="20" as="geometry" />
        </mxCell>
        <mxCell id="-gqS5XXJQ7I-xPd_6g-N-180" value="Таблица БД &quot;Загрязняющие вещества&quot;" style="text;html=1;strokeColor=none;fillColor=none;align=center;verticalAlign=middle;whiteSpace=wrap;rounded=0;fontFamily=Times New Roman;fontSize=14;" parent="oB7_KXZ4NShmShfg58jk-1" vertex="1">
          <mxGeometry x="-2460" y="627.67" width="235.22" height="20" as="geometry" />
        </mxCell>
        <mxCell id="-gqS5XXJQ7I-xPd_6g-N-181" value="" style="endArrow=classic;html=1;fontFamily=Times New Roman;align=center;exitX=0.996;exitY=0.541;exitDx=0;exitDy=0;exitPerimeter=0;jumpStyle=arc;fontSize=14;" parent="oB7_KXZ4NShmShfg58jk-1" source="-gqS5XXJQ7I-xPd_6g-N-201" edge="1">
          <mxGeometry width="50" height="50" relative="1" as="geometry">
            <mxPoint x="-2910" y="740" as="sourcePoint" />
            <mxPoint x="-2220" y="740" as="targetPoint" />
          </mxGeometry>
        </mxCell>
        <mxCell id="-gqS5XXJQ7I-xPd_6g-N-182" value="Таблица БД &quot;Время работы источника&quot;" style="text;html=1;strokeColor=none;fillColor=none;align=center;verticalAlign=middle;whiteSpace=wrap;rounded=0;fontFamily=Times New Roman;fontSize=14;" parent="oB7_KXZ4NShmShfg58jk-1" vertex="1">
          <mxGeometry x="-2470" y="721.17" width="240.5" height="20" as="geometry" />
        </mxCell>
        <mxCell id="-gqS5XXJQ7I-xPd_6g-N-183" value="Таблица БД &quot;Источники выбросов&quot;" style="text;html=1;strokeColor=none;fillColor=none;align=center;verticalAlign=middle;whiteSpace=wrap;rounded=0;fontFamily=Times New Roman;fontSize=14;" parent="oB7_KXZ4NShmShfg58jk-1" vertex="1">
          <mxGeometry x="-2460" y="700.17" width="224" height="20" as="geometry" />
        </mxCell>
        <mxCell id="-gqS5XXJQ7I-xPd_6g-N-184" value="Таблица БД &quot;Подразделения&quot;" style="text;html=1;strokeColor=none;fillColor=none;align=center;verticalAlign=middle;whiteSpace=wrap;rounded=0;fontFamily=Times New Roman;fontSize=14;" parent="oB7_KXZ4NShmShfg58jk-1" vertex="1">
          <mxGeometry x="-2446.94" y="680" width="210.5" height="20" as="geometry" />
        </mxCell>
        <mxCell id="-gqS5XXJQ7I-xPd_6g-N-185" value="Таблица БД &quot;Площадки&quot;" style="text;html=1;strokeColor=none;fillColor=none;align=center;verticalAlign=middle;whiteSpace=wrap;rounded=0;fontFamily=Times New Roman;fontSize=14;" parent="oB7_KXZ4NShmShfg58jk-1" vertex="1">
          <mxGeometry x="-2450.5" y="660" width="210.5" height="20" as="geometry" />
        </mxCell>
        <mxCell id="-gqS5XXJQ7I-xPd_6g-N-234" style="edgeStyle=orthogonalEdgeStyle;rounded=0;orthogonalLoop=1;jettySize=auto;html=1;entryX=0;entryY=0.5;entryDx=0;entryDy=0;jumpStyle=arc;fontSize=14;" parent="oB7_KXZ4NShmShfg58jk-1" target="-gqS5XXJQ7I-xPd_6g-N-204" edge="1">
          <mxGeometry relative="1" as="geometry">
            <mxPoint x="-2742" y="780" as="sourcePoint" />
            <Array as="points">
              <mxPoint x="-2650" y="780" />
              <mxPoint x="-2650" y="1000" />
            </Array>
          </mxGeometry>
        </mxCell>
        <mxCell id="-gqS5XXJQ7I-xPd_6g-N-236" style="edgeStyle=orthogonalEdgeStyle;rounded=0;orthogonalLoop=1;jettySize=auto;html=1;exitX=0.999;exitY=0.775;exitDx=0;exitDy=0;jumpStyle=arc;exitPerimeter=0;entryX=0;entryY=0.25;entryDx=0;entryDy=0;fontSize=14;" parent="oB7_KXZ4NShmShfg58jk-1" source="-gqS5XXJQ7I-xPd_6g-N-202" target="-gqS5XXJQ7I-xPd_6g-N-204" edge="1">
          <mxGeometry relative="1" as="geometry">
            <mxPoint x="-2610" y="970" as="targetPoint" />
            <Array as="points">
              <mxPoint x="-2630" y="634" />
              <mxPoint x="-2630" y="970" />
            </Array>
          </mxGeometry>
        </mxCell>
        <mxCell id="-gqS5XXJQ7I-xPd_6g-N-202" value="Модуль управления веществами и удельными показателями" style="rounded=0;whiteSpace=wrap;html=1;fontFamily=Times New Roman;fontSize=14;" parent="oB7_KXZ4NShmShfg58jk-1" vertex="1">
          <mxGeometry x="-3006.44" y="541.1700000000001" width="110" height="120" as="geometry" />
        </mxCell>
        <mxCell id="-gqS5XXJQ7I-xPd_6g-N-235" style="edgeStyle=orthogonalEdgeStyle;rounded=0;orthogonalLoop=1;jettySize=auto;html=1;exitX=1.002;exitY=0.837;exitDx=0;exitDy=0;exitPerimeter=0;entryX=0;entryY=0.75;entryDx=0;entryDy=0;fontSize=14;" parent="oB7_KXZ4NShmShfg58jk-1" source="-gqS5XXJQ7I-xPd_6g-N-203" target="-gqS5XXJQ7I-xPd_6g-N-204" edge="1">
          <mxGeometry relative="1" as="geometry">
            <mxPoint x="-2620" y="1030" as="targetPoint" />
            <Array as="points">
              <mxPoint x="-2670" y="920" />
              <mxPoint x="-2670" y="1030" />
            </Array>
          </mxGeometry>
        </mxCell>
        <mxCell id="-gqS5XXJQ7I-xPd_6g-N-203" value="Модуль управления методикам и параметрами режимами" style="rounded=0;whiteSpace=wrap;html=1;fontFamily=Times New Roman;fontSize=14;" parent="oB7_KXZ4NShmShfg58jk-1" vertex="1">
          <mxGeometry x="-2798" y="820.0000000000001" width="110" height="120" as="geometry" />
        </mxCell>
        <mxCell id="-gqS5XXJQ7I-xPd_6g-N-255" style="edgeStyle=orthogonalEdgeStyle;rounded=0;orthogonalLoop=1;jettySize=auto;html=1;exitX=1;exitY=0.5;exitDx=0;exitDy=0;entryX=0;entryY=0.25;entryDx=0;entryDy=0;fontSize=14;" parent="oB7_KXZ4NShmShfg58jk-1" source="-gqS5XXJQ7I-xPd_6g-N-204" target="-gqS5XXJQ7I-xPd_6g-N-205" edge="1">
          <mxGeometry relative="1" as="geometry" />
        </mxCell>
        <mxCell id="-gqS5XXJQ7I-xPd_6g-N-204" value="Модуль управления валовыми выбросами" style="rounded=0;whiteSpace=wrap;html=1;fontFamily=Times New Roman;fontSize=14;" parent="oB7_KXZ4NShmShfg58jk-1" vertex="1">
          <mxGeometry x="-2590" y="940.0000000000001" width="110" height="120" as="geometry" />
        </mxCell>
        <mxCell id="-gqS5XXJQ7I-xPd_6g-N-257" style="edgeStyle=orthogonalEdgeStyle;rounded=0;orthogonalLoop=1;jettySize=auto;html=1;exitX=1;exitY=0.25;exitDx=0;exitDy=0;fontSize=14;" parent="oB7_KXZ4NShmShfg58jk-1" source="-gqS5XXJQ7I-xPd_6g-N-205" edge="1">
          <mxGeometry relative="1" as="geometry">
            <mxPoint x="-2340" y="990" as="targetPoint" />
          </mxGeometry>
        </mxCell>
        <mxCell id="-gqS5XXJQ7I-xPd_6g-N-205" value="Модуль управления налогами" style="rounded=0;whiteSpace=wrap;html=1;fontFamily=Times New Roman;fontSize=14;" parent="oB7_KXZ4NShmShfg58jk-1" vertex="1">
          <mxGeometry x="-2480" y="1100" width="110" height="120" as="geometry" />
        </mxCell>
        <mxCell id="-gqS5XXJQ7I-xPd_6g-N-206" value="&lt;span style=&quot;color: rgb(0, 0, 0); font-family: &amp;quot;Times New Roman&amp;quot;; font-style: normal; font-variant-ligatures: normal; font-variant-caps: normal; font-weight: 400; letter-spacing: normal; orphans: 2; text-align: center; text-indent: 0px; text-transform: none; widows: 2; word-spacing: 0px; -webkit-text-stroke-width: 0px; white-space: normal; background-color: rgb(251, 251, 251); text-decoration-thickness: initial; text-decoration-style: initial; text-decoration-color: initial; float: none; line-height: 100%; display: inline !important;&quot;&gt;Данные о площадках и подразделениях&lt;/span&gt;" style="text;whiteSpace=wrap;html=1;fontSize=14;" parent="oB7_KXZ4NShmShfg58jk-1" vertex="1">
          <mxGeometry x="-3290" y="699.66" width="300" height="14.01" as="geometry" />
        </mxCell>
        <mxCell id="-gqS5XXJQ7I-xPd_6g-N-207" value="" style="endArrow=classic;html=1;entryX=-0.001;entryY=0.639;entryDx=0;entryDy=0;fontFamily=Times New Roman;entryPerimeter=0;fontSize=14;" parent="oB7_KXZ4NShmShfg58jk-1" target="-gqS5XXJQ7I-xPd_6g-N-201" edge="1">
          <mxGeometry width="50" height="50" relative="1" as="geometry">
            <mxPoint x="-3290" y="750" as="sourcePoint" />
            <mxPoint x="-2851.09" y="750.8000000000001" as="targetPoint" />
          </mxGeometry>
        </mxCell>
        <mxCell id="-gqS5XXJQ7I-xPd_6g-N-209" value="&lt;span style=&quot;font-family: &amp;quot;Times New Roman&amp;quot;; text-align: center;&quot;&gt;Данные об источниках выбросов&lt;/span&gt;" style="text;whiteSpace=wrap;html=1;fontSize=14;" parent="oB7_KXZ4NShmShfg58jk-1" vertex="1">
          <mxGeometry x="-3288.9" y="728.01" width="230" height="20" as="geometry" />
        </mxCell>
        <mxCell id="-gqS5XXJQ7I-xPd_6g-N-211" value="&lt;span style=&quot;font-family: &amp;quot;Times New Roman&amp;quot;; text-align: center;&quot;&gt;Данные о загрязняющих веществах&lt;/span&gt;" style="text;whiteSpace=wrap;html=1;fontSize=14;" parent="oB7_KXZ4NShmShfg58jk-1" vertex="1">
          <mxGeometry x="-3286.44" y="541.17" width="230" height="27.67" as="geometry" />
        </mxCell>
        <mxCell id="-gqS5XXJQ7I-xPd_6g-N-213" value="&lt;span style=&quot;font-family: &amp;quot;Times New Roman&amp;quot;; text-align: center;&quot;&gt;Данные об удельных показателях&lt;/span&gt;" style="text;whiteSpace=wrap;html=1;fontSize=14;" parent="oB7_KXZ4NShmShfg58jk-1" vertex="1">
          <mxGeometry x="-3286.44" y="575.8299999999999" width="230" height="27.67" as="geometry" />
        </mxCell>
        <mxCell id="-gqS5XXJQ7I-xPd_6g-N-214" value="" style="endArrow=classic;html=1;entryX=-0.018;entryY=0.555;entryDx=0;entryDy=0;fontFamily=Times New Roman;entryPerimeter=0;fontSize=14;jumpStyle=arc;" parent="oB7_KXZ4NShmShfg58jk-1" target="-gqS5XXJQ7I-xPd_6g-N-203" edge="1">
          <mxGeometry width="50" height="50" relative="1" as="geometry">
            <mxPoint x="-3280" y="887" as="sourcePoint" />
            <mxPoint x="-3040" y="896.9999999999999" as="targetPoint" />
          </mxGeometry>
        </mxCell>
        <mxCell id="-gqS5XXJQ7I-xPd_6g-N-215" value="&lt;span style=&quot;font-family: &amp;quot;Times New Roman&amp;quot;; text-align: center;&quot;&gt;Данные о методиках и их параметрах&lt;/span&gt;" style="text;whiteSpace=wrap;html=1;fontSize=14;" parent="oB7_KXZ4NShmShfg58jk-1" vertex="1">
          <mxGeometry x="-3280" y="856.1599999999999" width="230" height="27.67" as="geometry" />
        </mxCell>
        <mxCell id="-gqS5XXJQ7I-xPd_6g-N-217" value="&lt;span style=&quot;font-family: &amp;quot;Times New Roman&amp;quot;; text-align: center;&quot;&gt;Данные о времени работы источников выбросов&amp;nbsp;&lt;/span&gt;" style="text;whiteSpace=wrap;html=1;fontSize=14;" parent="oB7_KXZ4NShmShfg58jk-1" vertex="1">
          <mxGeometry x="-3288.9" y="755" width="328.9" height="17.67" as="geometry" />
        </mxCell>
        <mxCell id="-gqS5XXJQ7I-xPd_6g-N-220" value="" style="endArrow=classic;html=1;fontFamily=Times New Roman;align=center;jumpStyle=arc;fontSize=14;" parent="oB7_KXZ4NShmShfg58jk-1" edge="1">
          <mxGeometry width="50" height="50" relative="1" as="geometry">
            <mxPoint x="-2790" y="679" as="sourcePoint" />
            <mxPoint x="-2220" y="679" as="targetPoint" />
          </mxGeometry>
        </mxCell>
        <mxCell id="-gqS5XXJQ7I-xPd_6g-N-221" value="" style="endArrow=classic;html=1;fontFamily=Times New Roman;align=center;jumpStyle=arc;fontSize=14;" parent="oB7_KXZ4NShmShfg58jk-1" edge="1">
          <mxGeometry width="50" height="50" relative="1" as="geometry">
            <mxPoint x="-2790" y="700" as="sourcePoint" />
            <mxPoint x="-2220" y="700" as="targetPoint" />
          </mxGeometry>
        </mxCell>
        <mxCell id="-gqS5XXJQ7I-xPd_6g-N-222" value="" style="endArrow=classic;html=1;fontFamily=Times New Roman;align=center;jumpStyle=arc;fontSize=14;" parent="oB7_KXZ4NShmShfg58jk-1" edge="1">
          <mxGeometry width="50" height="50" relative="1" as="geometry">
            <mxPoint x="-2790" y="720" as="sourcePoint" />
            <mxPoint x="-2220" y="720" as="targetPoint" />
          </mxGeometry>
        </mxCell>
        <mxCell id="-gqS5XXJQ7I-xPd_6g-N-223" value="" style="endArrow=classic;html=1;entryX=0;entryY=0.25;entryDx=0;entryDy=0;fontFamily=Times New Roman;fontSize=14;" parent="oB7_KXZ4NShmShfg58jk-1" target="-gqS5XXJQ7I-xPd_6g-N-202" edge="1">
          <mxGeometry width="50" height="50" relative="1" as="geometry">
            <mxPoint x="-3286.44" y="571.5" as="sourcePoint" />
            <mxPoint x="-2928.44" y="571.1700000000001" as="targetPoint" />
          </mxGeometry>
        </mxCell>
        <mxCell id="-gqS5XXJQ7I-xPd_6g-N-224" value="" style="endArrow=classic;html=1;entryX=0;entryY=0.5;entryDx=0;entryDy=0;fontFamily=Times New Roman;fontSize=14;jumpStyle=arc;" parent="oB7_KXZ4NShmShfg58jk-1" target="-gqS5XXJQ7I-xPd_6g-N-205" edge="1">
          <mxGeometry width="50" height="50" relative="1" as="geometry">
            <mxPoint x="-3280" y="1160" as="sourcePoint" />
            <mxPoint x="-3040" y="1134.0099999999998" as="targetPoint" />
          </mxGeometry>
        </mxCell>
        <mxCell id="-gqS5XXJQ7I-xPd_6g-N-225" value="&lt;span style=&quot;font-family: &amp;quot;Times New Roman&amp;quot;; text-align: center;&quot;&gt;Данные о ставках налогов&lt;/span&gt;" style="text;whiteSpace=wrap;html=1;fontSize=14;" parent="oB7_KXZ4NShmShfg58jk-1" vertex="1">
          <mxGeometry x="-3278.9" y="1128.67" width="240" height="27.67" as="geometry" />
        </mxCell>
        <mxCell id="-gqS5XXJQ7I-xPd_6g-N-228" value="" style="endArrow=classic;html=1;exitX=0;exitY=1;exitDx=0;exitDy=0;fontFamily=Times New Roman;entryX=0.002;entryY=0.888;entryDx=0;entryDy=0;entryPerimeter=0;fontSize=14;" parent="oB7_KXZ4NShmShfg58jk-1" source="-gqS5XXJQ7I-xPd_6g-N-229" target="-gqS5XXJQ7I-xPd_6g-N-202" edge="1">
          <mxGeometry width="50" height="50" relative="1" as="geometry">
            <mxPoint x="-3290" y="647.66" as="sourcePoint" />
            <mxPoint x="-3030" y="670" as="targetPoint" />
          </mxGeometry>
        </mxCell>
        <mxCell id="-gqS5XXJQ7I-xPd_6g-N-229" value="&lt;span style=&quot;font-family: &amp;quot;Times New Roman&amp;quot;; text-align: center;&quot;&gt;Данные о расходных материалах и объёмах расхода&lt;/span&gt;" style="text;whiteSpace=wrap;html=1;fontSize=14;" parent="oB7_KXZ4NShmShfg58jk-1" vertex="1">
          <mxGeometry x="-3286.44" y="620" width="280" height="27.67" as="geometry" />
        </mxCell>
        <mxCell id="-gqS5XXJQ7I-xPd_6g-N-230" value="" style="endArrow=classic;html=1;entryX=-0.004;entryY=0.541;entryDx=0;entryDy=0;exitX=0;exitY=1;exitDx=0;exitDy=0;fontFamily=Times New Roman;entryPerimeter=0;fontSize=14;" parent="oB7_KXZ4NShmShfg58jk-1" target="-gqS5XXJQ7I-xPd_6g-N-202" edge="1">
          <mxGeometry width="50" height="50" relative="1" as="geometry">
            <mxPoint x="-3286.44" y="605.83" as="sourcePoint" />
            <mxPoint x="-2931.3" y="606.1700000000001" as="targetPoint" />
          </mxGeometry>
        </mxCell>
        <mxCell id="-gqS5XXJQ7I-xPd_6g-N-231" value="" style="endArrow=classic;html=1;entryX=-0.003;entryY=0.869;entryDx=0;entryDy=0;fontFamily=Times New Roman;entryPerimeter=0;fontSize=14;" parent="oB7_KXZ4NShmShfg58jk-1" target="-gqS5XXJQ7I-xPd_6g-N-201" edge="1">
          <mxGeometry width="50" height="50" relative="1" as="geometry">
            <mxPoint x="-3290" y="778" as="sourcePoint" />
            <mxPoint x="-2850.1000000000004" y="777.6700000000001" as="targetPoint" />
          </mxGeometry>
        </mxCell>
        <mxCell id="-gqS5XXJQ7I-xPd_6g-N-237" value="" style="endArrow=classic;html=1;fontFamily=Times New Roman;align=center;jumpStyle=arc;fontSize=14;" parent="oB7_KXZ4NShmShfg58jk-1" edge="1">
          <mxGeometry width="50" height="50" relative="1" as="geometry">
            <mxPoint x="-2789" y="759.6800000000001" as="sourcePoint" />
            <mxPoint x="-2220" y="760" as="targetPoint" />
          </mxGeometry>
        </mxCell>
        <mxCell id="-gqS5XXJQ7I-xPd_6g-N-238" value="" style="endArrow=classic;html=1;fontFamily=Times New Roman;align=center;exitX=0.999;exitY=0.922;exitDx=0;exitDy=0;jumpStyle=arc;exitPerimeter=0;fontSize=14;" parent="oB7_KXZ4NShmShfg58jk-1" source="-gqS5XXJQ7I-xPd_6g-N-202" edge="1">
          <mxGeometry width="50" height="50" relative="1" as="geometry">
            <mxPoint x="-2757.94" y="574.83" as="sourcePoint" />
            <mxPoint x="-2220" y="650" as="targetPoint" />
          </mxGeometry>
        </mxCell>
        <mxCell id="-gqS5XXJQ7I-xPd_6g-N-201" value="Модуль управления источниками выбросов" style="rounded=0;whiteSpace=wrap;html=1;fontFamily=Times New Roman;fontSize=14;" parent="oB7_KXZ4NShmShfg58jk-1" vertex="1">
          <mxGeometry x="-2852.5" y="673.84" width="110" height="120" as="geometry" />
        </mxCell>
        <mxCell id="-gqS5XXJQ7I-xPd_6g-N-241" style="edgeStyle=orthogonalEdgeStyle;rounded=0;orthogonalLoop=1;jettySize=auto;html=1;entryX=0;entryY=0.25;entryDx=0;entryDy=0;exitX=1.004;exitY=0.924;exitDx=0;exitDy=0;exitPerimeter=0;fontSize=14;" parent="oB7_KXZ4NShmShfg58jk-1" source="-gqS5XXJQ7I-xPd_6g-N-202" target="-gqS5XXJQ7I-xPd_6g-N-201" edge="1">
          <mxGeometry relative="1" as="geometry">
            <mxPoint x="-2890" y="650" as="sourcePoint" />
            <mxPoint x="-2920" y="690" as="targetPoint" />
          </mxGeometry>
        </mxCell>
        <mxCell id="-gqS5XXJQ7I-xPd_6g-N-243" value="Таблица БД &quot;Параметры методик&quot;" style="text;html=1;strokeColor=none;fillColor=none;align=center;verticalAlign=middle;whiteSpace=wrap;rounded=0;fontFamily=Times New Roman;fontSize=14;" parent="oB7_KXZ4NShmShfg58jk-1" vertex="1">
          <mxGeometry x="-2460" y="877.83" width="244.86" height="20" as="geometry" />
        </mxCell>
        <mxCell id="-gqS5XXJQ7I-xPd_6g-N-244" value="" style="endArrow=classic;html=1;exitX=0.998;exitY=0.614;exitDx=0;exitDy=0;fontFamily=Times New Roman;align=center;exitPerimeter=0;fontSize=14;" parent="oB7_KXZ4NShmShfg58jk-1" source="-gqS5XXJQ7I-xPd_6g-N-202" edge="1">
          <mxGeometry width="50" height="50" relative="1" as="geometry">
            <mxPoint x="-2430" y="589.3799999999999" as="sourcePoint" />
            <mxPoint x="-2220" y="615" as="targetPoint" />
          </mxGeometry>
        </mxCell>
        <mxCell id="-gqS5XXJQ7I-xPd_6g-N-246" value="Таблица БД &quot;Удельные показатели&quot;" style="text;html=1;strokeColor=none;fillColor=none;align=center;verticalAlign=middle;whiteSpace=wrap;rounded=0;fontFamily=Times New Roman;fontSize=14;" parent="oB7_KXZ4NShmShfg58jk-1" vertex="1">
          <mxGeometry x="-2450" y="593.17" width="227.72" height="20" as="geometry" />
        </mxCell>
        <mxCell id="-gqS5XXJQ7I-xPd_6g-N-247" value="" style="endArrow=classic;html=1;entryX=1;entryY=1;entryDx=0;entryDy=0;exitX=1.004;exitY=0.16;exitDx=0;exitDy=0;fontFamily=Times New Roman;align=center;jumpStyle=arc;exitPerimeter=0;fontSize=14;" parent="oB7_KXZ4NShmShfg58jk-1" source="-gqS5XXJQ7I-xPd_6g-N-203" edge="1">
          <mxGeometry width="50" height="50" relative="1" as="geometry">
            <mxPoint x="-2627.78" y="839.4699999999999" as="sourcePoint" />
            <mxPoint x="-2219.78" y="839.3099999999998" as="targetPoint" />
          </mxGeometry>
        </mxCell>
        <mxCell id="-gqS5XXJQ7I-xPd_6g-N-249" style="edgeStyle=orthogonalEdgeStyle;rounded=0;orthogonalLoop=1;jettySize=auto;html=1;jumpStyle=arc;exitX=1.004;exitY=0.452;exitDx=0;exitDy=0;exitPerimeter=0;fontSize=14;" parent="oB7_KXZ4NShmShfg58jk-1" source="-gqS5XXJQ7I-xPd_6g-N-202" edge="1">
          <mxGeometry relative="1" as="geometry">
            <mxPoint x="-2896" y="571" as="sourcePoint" />
            <mxPoint x="-2510" y="840" as="targetPoint" />
          </mxGeometry>
        </mxCell>
        <mxCell id="-gqS5XXJQ7I-xPd_6g-N-250" value="" style="endArrow=classic;html=1;entryX=1;entryY=1;entryDx=0;entryDy=0;exitX=0.998;exitY=0.102;exitDx=0;exitDy=0;fontFamily=Times New Roman;align=center;exitPerimeter=0;fontSize=14;" parent="oB7_KXZ4NShmShfg58jk-1" edge="1">
          <mxGeometry width="50" height="50" relative="1" as="geometry">
            <mxPoint x="-2896.66" y="556.4100000000001" as="sourcePoint" />
            <mxPoint x="-2222.28" y="556.1700000000001" as="targetPoint" />
          </mxGeometry>
        </mxCell>
        <mxCell id="-gqS5XXJQ7I-xPd_6g-N-252" value="" style="endArrow=classic;html=1;fontFamily=Times New Roman;align=center;exitX=0.998;exitY=0.321;exitDx=0;exitDy=0;exitPerimeter=0;fontSize=14;" parent="oB7_KXZ4NShmShfg58jk-1" edge="1">
          <mxGeometry width="50" height="50" relative="1" as="geometry">
            <mxPoint x="-2896.44" y="576.69" as="sourcePoint" />
            <mxPoint x="-2219.78" y="577" as="targetPoint" />
          </mxGeometry>
        </mxCell>
        <mxCell id="-gqS5XXJQ7I-xPd_6g-N-253" value="Таблица БД &quot;Расходы&quot;" style="text;html=1;strokeColor=none;fillColor=none;align=center;verticalAlign=middle;whiteSpace=wrap;rounded=0;fontFamily=Times New Roman;fontSize=14;" parent="oB7_KXZ4NShmShfg58jk-1" vertex="1">
          <mxGeometry x="-2450" y="558.17" width="187.94" height="20" as="geometry" />
        </mxCell>
        <mxCell id="-gqS5XXJQ7I-xPd_6g-N-254" value="Таблица БД &quot;Расходные группы&quot;" style="text;html=1;strokeColor=none;fillColor=none;align=center;verticalAlign=middle;whiteSpace=wrap;rounded=0;fontFamily=Times New Roman;fontSize=14;" parent="oB7_KXZ4NShmShfg58jk-1" vertex="1">
          <mxGeometry x="-2500" y="536.17" width="271.58" height="20" as="geometry" />
        </mxCell>
        <mxCell id="-gqS5XXJQ7I-xPd_6g-N-262" value="" style="endArrow=classic;html=1;entryX=0.126;entryY=1.004;entryDx=0;entryDy=0;fontFamily=Times New Roman;rounded=0;curved=0;jumpStyle=arc;entryPerimeter=0;fontSize=14;" parent="oB7_KXZ4NShmShfg58jk-1" target="-gqS5XXJQ7I-xPd_6g-N-205" edge="1">
          <mxGeometry width="50" height="50" relative="1" as="geometry">
            <mxPoint x="-2770" y="1290" as="sourcePoint" />
            <mxPoint x="-2769.62" y="1189.9999999999998" as="targetPoint" />
            <Array as="points">
              <mxPoint x="-2770" y="1250" />
              <mxPoint x="-2466" y="1250" />
            </Array>
          </mxGeometry>
        </mxCell>
        <mxCell id="-gqS5XXJQ7I-xPd_6g-N-264" value="" style="endArrow=classic;html=1;entryX=0.636;entryY=1.015;entryDx=0;entryDy=0;fontFamily=Times New Roman;rounded=0;curved=0;jumpStyle=arc;entryPerimeter=0;fontSize=14;" parent="oB7_KXZ4NShmShfg58jk-1" target="-gqS5XXJQ7I-xPd_6g-N-204" edge="1">
          <mxGeometry width="50" height="50" relative="1" as="geometry">
            <mxPoint x="-2770" y="1290" as="sourcePoint" />
            <mxPoint x="-2769.62" y="1189.9999999999998" as="targetPoint" />
            <Array as="points">
              <mxPoint x="-2770" y="1250" />
              <mxPoint x="-2520" y="1250" />
            </Array>
          </mxGeometry>
        </mxCell>
        <mxCell id="-gqS5XXJQ7I-xPd_6g-N-265" value="" style="endArrow=classic;html=1;entryX=0.75;entryY=1;entryDx=0;entryDy=0;fontFamily=Times New Roman;rounded=0;curved=0;jumpStyle=arc;fontSize=14;" parent="oB7_KXZ4NShmShfg58jk-1" target="-gqS5XXJQ7I-xPd_6g-N-203" edge="1">
          <mxGeometry width="50" height="50" relative="1" as="geometry">
            <mxPoint x="-2770" y="1290" as="sourcePoint" />
            <mxPoint x="-2769.62" y="1189.9999999999998" as="targetPoint" />
            <Array as="points">
              <mxPoint x="-2770" y="1250" />
              <mxPoint x="-2715" y="1250" />
            </Array>
          </mxGeometry>
        </mxCell>
        <mxCell id="-gqS5XXJQ7I-xPd_6g-N-266" value="" style="endArrow=classic;html=1;fontFamily=Times New Roman;entryX=0.5;entryY=1;entryDx=0;entryDy=0;rounded=0;curved=0;fontSize=14;" parent="oB7_KXZ4NShmShfg58jk-1" target="-gqS5XXJQ7I-xPd_6g-N-205" edge="1">
          <mxGeometry width="50" height="50" relative="1" as="geometry">
            <mxPoint x="-2560" y="1290" as="sourcePoint" />
            <mxPoint x="-2581.5" y="1291.6499999999999" as="targetPoint" />
            <Array as="points">
              <mxPoint x="-2560" y="1270" />
              <mxPoint x="-2425" y="1270" />
            </Array>
          </mxGeometry>
        </mxCell>
        <mxCell id="-gqS5XXJQ7I-xPd_6g-N-267" value="просмотр" style="edgeLabel;html=1;align=center;verticalAlign=middle;resizable=0;points=[];fontStyle=2;fontFamily=Times New Roman;fontSize=14;labelBackgroundColor=none;" parent="-gqS5XXJQ7I-xPd_6g-N-266" vertex="1" connectable="0">
          <mxGeometry x="0.8094" relative="1" as="geometry">
            <mxPoint x="-33" y="23" as="offset" />
          </mxGeometry>
        </mxCell>
        <mxCell id="-gqS5XXJQ7I-xPd_6g-N-270" value="" style="endArrow=classic;html=1;entryX=0.335;entryY=1.005;entryDx=0;entryDy=0;fontFamily=Times New Roman;rounded=0;jumpStyle=arc;fontSize=14;edgeStyle=orthogonalEdgeStyle;entryPerimeter=0;" parent="oB7_KXZ4NShmShfg58jk-1" target="-gqS5XXJQ7I-xPd_6g-N-201" edge="1">
          <mxGeometry width="50" height="50" relative="1" as="geometry">
            <mxPoint x="-2770" y="1290" as="sourcePoint" />
            <mxPoint x="-2769.62" y="1189.9999999999998" as="targetPoint" />
            <Array as="points">
              <mxPoint x="-2769" y="1290" />
              <mxPoint x="-2769" y="980" />
              <mxPoint x="-2816" y="980" />
            </Array>
          </mxGeometry>
        </mxCell>
      </root>
    </mxGraphModel>
  </diagram>
  <diagram name="Для слайда" id="1b5KspupRoaC2nfq6Hjk">
    <mxGraphModel dx="4024" dy="428" grid="1" gridSize="10" guides="1" tooltips="1" connect="1" arrows="1" fold="1" page="1" pageScale="1" pageWidth="3300" pageHeight="2339" math="0" shadow="0">
      <root>
        <mxCell id="yCZq-Ev3zYY2rNZQ8MGz-0" />
        <mxCell id="yCZq-Ev3zYY2rNZQ8MGz-1" parent="yCZq-Ev3zYY2rNZQ8MGz-0" />
        <mxCell id="yCZq-Ev3zYY2rNZQ8MGz-2" value="Учёт выбросов загрязняющих веществ на металлообрабатывающем предприятии в атмосферный воздух" style="rounded=0;whiteSpace=wrap;html=1;fontFamily=Times New Roman;" parent="yCZq-Ev3zYY2rNZQ8MGz-1" vertex="1">
          <mxGeometry x="-3060" y="20" width="230" height="110.29" as="geometry" />
        </mxCell>
        <mxCell id="yCZq-Ev3zYY2rNZQ8MGz-3" value="Статистика" style="text;html=1;strokeColor=none;fillColor=none;align=center;verticalAlign=middle;whiteSpace=wrap;rounded=0;fontFamily=Times New Roman;" parent="yCZq-Ev3zYY2rNZQ8MGz-1" vertex="1">
          <mxGeometry x="-2762.5" y="108.28999999999999" width="100" height="20" as="geometry" />
        </mxCell>
        <mxCell id="yCZq-Ev3zYY2rNZQ8MGz-4" value="" style="endArrow=classic;html=1;entryX=1;entryY=1;entryDx=0;entryDy=0;exitX=0;exitY=1;exitDx=0;exitDy=0;fontFamily=Times New Roman;" parent="yCZq-Ev3zYY2rNZQ8MGz-1" source="yCZq-Ev3zYY2rNZQ8MGz-5" target="yCZq-Ev3zYY2rNZQ8MGz-5" edge="1">
          <mxGeometry width="50" height="50" relative="1" as="geometry">
            <mxPoint x="-3210" y="229.29" as="sourcePoint" />
            <mxPoint x="-3050" y="271.29" as="targetPoint" />
          </mxGeometry>
        </mxCell>
        <mxCell id="yCZq-Ev3zYY2rNZQ8MGz-5" value="Данные для учёта выбросов загрязняющих веществ" style="text;html=1;strokeColor=none;fillColor=none;align=center;verticalAlign=middle;whiteSpace=wrap;rounded=0;fontFamily=Times New Roman;" parent="yCZq-Ev3zYY2rNZQ8MGz-1" vertex="1">
          <mxGeometry x="-3220" y="50.29" width="160" height="40" as="geometry" />
        </mxCell>
        <mxCell id="yCZq-Ev3zYY2rNZQ8MGz-6" value="" style="endArrow=classic;html=1;entryX=0.066;entryY=1.001;entryDx=0;entryDy=0;entryPerimeter=0;fontFamily=Times New Roman;" parent="yCZq-Ev3zYY2rNZQ8MGz-1" edge="1">
          <mxGeometry width="50" height="50" relative="1" as="geometry">
            <mxPoint x="-3052" y="171" as="sourcePoint" />
            <mxPoint x="-3051.8199999999997" y="131.06999999999996" as="targetPoint" />
          </mxGeometry>
        </mxCell>
        <mxCell id="yCZq-Ev3zYY2rNZQ8MGz-7" value="Руководитель&lt;div&gt;предприятия&lt;/div&gt;" style="text;html=1;strokeColor=none;fillColor=none;align=center;verticalAlign=middle;whiteSpace=wrap;rounded=0;fontFamily=Times New Roman;" parent="yCZq-Ev3zYY2rNZQ8MGz-1" vertex="1">
          <mxGeometry x="-2984" y="175.93999999999994" width="43" height="20" as="geometry" />
        </mxCell>
        <mxCell id="yCZq-Ev3zYY2rNZQ8MGz-8" value="" style="endArrow=classic;html=1;entryX=0.212;entryY=1.01;entryDx=0;entryDy=0;entryPerimeter=0;fontFamily=Times New Roman;" parent="yCZq-Ev3zYY2rNZQ8MGz-1" edge="1">
          <mxGeometry width="50" height="50" relative="1" as="geometry">
            <mxPoint x="-3006" y="150" as="sourcePoint" />
            <mxPoint x="-3006.24" y="132.23999999999992" as="targetPoint" />
          </mxGeometry>
        </mxCell>
        <mxCell id="yCZq-Ev3zYY2rNZQ8MGz-9" value="Оператор" style="text;html=1;strokeColor=none;fillColor=none;align=center;verticalAlign=middle;whiteSpace=wrap;rounded=0;fontFamily=Times New Roman;" parent="yCZq-Ev3zYY2rNZQ8MGz-1" vertex="1">
          <mxGeometry x="-3030" y="153.93999999999994" width="46" height="10" as="geometry" />
        </mxCell>
        <mxCell id="yCZq-Ev3zYY2rNZQ8MGz-10" value="" style="endArrow=classic;html=1;fontFamily=Times New Roman;" parent="yCZq-Ev3zYY2rNZQ8MGz-1" edge="1">
          <mxGeometry width="50" height="50" relative="1" as="geometry">
            <mxPoint x="-2965" y="167" as="sourcePoint" />
            <mxPoint x="-2965" y="131.93999999999997" as="targetPoint" />
          </mxGeometry>
        </mxCell>
        <mxCell id="yCZq-Ev3zYY2rNZQ8MGz-11" value="Эколог" style="text;html=1;strokeColor=none;fillColor=none;align=center;verticalAlign=middle;whiteSpace=wrap;rounded=0;fontFamily=Times New Roman;" parent="yCZq-Ev3zYY2rNZQ8MGz-1" vertex="1">
          <mxGeometry x="-3080" y="175.93999999999994" width="50" height="10" as="geometry" />
        </mxCell>
        <mxCell id="yCZq-Ev3zYY2rNZQ8MGz-12" value="" style="endArrow=classic;html=1;entryX=0.663;entryY=0.995;entryDx=0;entryDy=0;entryPerimeter=0;fontFamily=Times New Roman;" parent="yCZq-Ev3zYY2rNZQ8MGz-1" edge="1">
          <mxGeometry width="50" height="50" relative="1" as="geometry">
            <mxPoint x="-2903" y="156" as="sourcePoint" />
            <mxPoint x="-2902.51" y="130.29" as="targetPoint" />
          </mxGeometry>
        </mxCell>
        <mxCell id="yCZq-Ev3zYY2rNZQ8MGz-13" value="Бухгалтер" style="text;html=1;strokeColor=none;fillColor=none;align=center;verticalAlign=middle;whiteSpace=wrap;rounded=0;fontFamily=Times New Roman;" parent="yCZq-Ev3zYY2rNZQ8MGz-1" vertex="1">
          <mxGeometry x="-2931" y="154.93999999999994" width="64" height="15" as="geometry" />
        </mxCell>
        <mxCell id="yCZq-Ev3zYY2rNZQ8MGz-14" value="" style="endArrow=classic;html=1;entryX=0.946;entryY=1.005;entryDx=0;entryDy=0;entryPerimeter=0;fontFamily=Times New Roman;" parent="yCZq-Ev3zYY2rNZQ8MGz-1" target="yCZq-Ev3zYY2rNZQ8MGz-2" edge="1">
          <mxGeometry width="50" height="50" relative="1" as="geometry">
            <mxPoint x="-2843" y="160" as="sourcePoint" />
            <mxPoint x="-2837.62" y="131.97999999999993" as="targetPoint" />
          </mxGeometry>
        </mxCell>
        <mxCell id="yCZq-Ev3zYY2rNZQ8MGz-15" value="Администратор" style="text;html=1;strokeColor=none;fillColor=none;align=center;verticalAlign=middle;whiteSpace=wrap;rounded=0;fontFamily=Times New Roman;" parent="yCZq-Ev3zYY2rNZQ8MGz-1" vertex="1">
          <mxGeometry x="-2850" y="159.93999999999994" width="64" height="10" as="geometry" />
        </mxCell>
        <mxCell id="yCZq-Ev3zYY2rNZQ8MGz-24" value="" style="endArrow=classic;html=1;fontFamily=Times New Roman;align=center;" parent="yCZq-Ev3zYY2rNZQ8MGz-1" edge="1">
          <mxGeometry width="50" height="50" relative="1" as="geometry">
            <mxPoint x="-2830" y="29.289999999999992" as="sourcePoint" />
            <mxPoint x="-2590" y="29" as="targetPoint" />
          </mxGeometry>
        </mxCell>
        <mxCell id="yCZq-Ev3zYY2rNZQ8MGz-25" value="" style="endArrow=classic;html=1;fontFamily=Times New Roman;align=center;" parent="yCZq-Ev3zYY2rNZQ8MGz-1" edge="1">
          <mxGeometry width="50" height="50" relative="1" as="geometry">
            <mxPoint x="-2830" y="49.78999999999999" as="sourcePoint" />
            <mxPoint x="-2590" y="49" as="targetPoint" />
          </mxGeometry>
        </mxCell>
        <mxCell id="yCZq-Ev3zYY2rNZQ8MGz-26" value="" style="endArrow=classic;html=1;fontFamily=Times New Roman;align=center;" parent="yCZq-Ev3zYY2rNZQ8MGz-1" edge="1">
          <mxGeometry width="50" height="50" relative="1" as="geometry">
            <mxPoint x="-2830" y="70.78999999999999" as="sourcePoint" />
            <mxPoint x="-2590" y="70" as="targetPoint" />
          </mxGeometry>
        </mxCell>
        <mxCell id="yCZq-Ev3zYY2rNZQ8MGz-27" value="Таблицы БД источников и их описания" style="text;html=1;strokeColor=none;fillColor=none;align=center;verticalAlign=middle;whiteSpace=wrap;rounded=0;fontFamily=Times New Roman;" parent="yCZq-Ev3zYY2rNZQ8MGz-1" vertex="1">
          <mxGeometry x="-2825" y="9.29" width="225" height="20" as="geometry" />
        </mxCell>
        <mxCell id="yCZq-Ev3zYY2rNZQ8MGz-28" value="Таблицы БД загрязняющих веществ" style="text;html=1;strokeColor=none;fillColor=none;align=center;verticalAlign=middle;whiteSpace=wrap;rounded=0;fontFamily=Times New Roman;" parent="yCZq-Ev3zYY2rNZQ8MGz-1" vertex="1">
          <mxGeometry x="-2825" y="31.29" width="225" height="20" as="geometry" />
        </mxCell>
        <mxCell id="yCZq-Ev3zYY2rNZQ8MGz-29" value="Таблицы БД валовых выбросов" style="text;html=1;strokeColor=none;fillColor=none;align=center;verticalAlign=middle;whiteSpace=wrap;rounded=0;fontFamily=Times New Roman;" parent="yCZq-Ev3zYY2rNZQ8MGz-1" vertex="1">
          <mxGeometry x="-2826.5" y="71.29" width="236.5" height="18" as="geometry" />
        </mxCell>
        <mxCell id="yCZq-Ev3zYY2rNZQ8MGz-30" value="" style="endArrow=classic;html=1;fontFamily=Times New Roman;align=center;" parent="yCZq-Ev3zYY2rNZQ8MGz-1" edge="1">
          <mxGeometry width="50" height="50" relative="1" as="geometry">
            <mxPoint x="-2830" y="89.78999999999999" as="sourcePoint" />
            <mxPoint x="-2590" y="89" as="targetPoint" />
          </mxGeometry>
        </mxCell>
        <mxCell id="yCZq-Ev3zYY2rNZQ8MGz-31" value="" style="endArrow=classic;html=1;exitX=1.005;exitY=0.949;exitDx=0;exitDy=0;exitPerimeter=0;fontFamily=Times New Roman;align=center;" parent="yCZq-Ev3zYY2rNZQ8MGz-1" edge="1">
          <mxGeometry width="50" height="50" relative="1" as="geometry">
            <mxPoint x="-2828.8500000000004" y="125.60000000000005" as="sourcePoint" />
            <mxPoint x="-2590" y="125" as="targetPoint" />
          </mxGeometry>
        </mxCell>
        <mxCell id="yCZq-Ev3zYY2rNZQ8MGz-95" value="Таблицы БД методик и их параметров" style="text;html=1;strokeColor=none;fillColor=none;align=center;verticalAlign=middle;whiteSpace=wrap;rounded=0;fontFamily=Times New Roman;" parent="yCZq-Ev3zYY2rNZQ8MGz-1" vertex="1">
          <mxGeometry x="-2830.5" y="52" width="240.5" height="18.29" as="geometry" />
        </mxCell>
        <mxCell id="CNeeBl6b2NSwG6tWGrj0-0" value="Таблицы БД налогов" style="text;html=1;strokeColor=none;fillColor=none;align=center;verticalAlign=middle;whiteSpace=wrap;rounded=0;fontFamily=Times New Roman;" parent="yCZq-Ev3zYY2rNZQ8MGz-1" vertex="1">
          <mxGeometry x="-2827" y="90.29" width="236.5" height="18" as="geometry" />
        </mxCell>
        <mxCell id="CNeeBl6b2NSwG6tWGrj0-1" value="" style="endArrow=classic;html=1;fontFamily=Times New Roman;align=center;" parent="yCZq-Ev3zYY2rNZQ8MGz-1" edge="1">
          <mxGeometry width="50" height="50" relative="1" as="geometry">
            <mxPoint x="-2830.5" y="108.78999999999999" as="sourcePoint" />
            <mxPoint x="-2590.5" y="108" as="targetPoint" />
          </mxGeometry>
        </mxCell>
      </root>
    </mxGraphModel>
  </diagram>
</mxfile>
